{"title":"Hack My Life S01E05 720p HDTV  x265 HEVC-AuP [UTR]","uid":11680326,"size":273943204,"categoryP":"video","categoryS":"hd___tv_shows","magnet":"?xt=urn:btih:8a7948949ff168ff83243d2d1b3771f25c7a5972&amp;dn=+Hack+My+Life+S01E05+720p+HDTV++x265+HEVC-AuP+%5BUTR%5D&amp;tr=udp%3A%2F%2Ftracker.openbittorrent.com%3A80&amp;tr=udp%3A%2F%2Fopen.demonii.com%3A1337&amp;tr=udp%3A%2F%2Ftracker.coppersurfer.tk%3A6969&amp;tr=udp%3A%2F%2Fexodus.desync.com%3A6969","seeders":3,"leechers":1,"uploader":"Anon_up","files":1,"time":1423056715,"description":"[center][img]http://i.imgur.com/gv8mpWw.png[/img]\n\n[img]http://i.imgur.com/lrInXKU.png[/img]\n\n[url=https://kickass.so/community/show/how-play-x265-hevc-videos-encodes-pc-linux-android/][img]http://i.imgur.com/yMGYXay.png[/img][/url]\n\n\nUse torrent ..has permanent webseed\n\nCRF 25\nOriginal 5.1 Audio\n~21 min\n\nIf u like it, +1 else leave\n\nStreaming Links : u can use same posted on my DHD torrent \n\nVideo: HVC1 1280x720 23.976fps [V: hevc main, yuv420p, 1280x720 \nAudio: Dolby AC3 48000Hz 6ch 448kbps [A: ac3, 48000 Hz, 5.1, 448 kb/s \n\nSource 720p DHD\n\nThis is ideal for preserving...not too big nor small\nnot much loss in quality compared to source \n\nI encoded it for myself, \nIf u want lower quality/size ,try PSA if at al released\nif u dont bother abt size, get the original from DHD\n\n\nUnique ID : 322903479910676888056010199588975499262 (0xF2ECF2B761B1F96BAE0B51D34A9D57FE)\nComplete name :Hack.My.Life.S01E05.Undercover.Hacks.720p.HDTV.x265-AuP.mkv\nFormat : Matroska\nFormat version : Version 4 / Version 2\nFile size : 261 MiB\nDuration : 20mn 50s\nOverall bit rate : 1 752 Kbps\nWriting application : Lavf56.4.101\nWriting library : Lavf56.4.101\n\nVideo\nID : 1\nFormat : HEVC\nFormat/Info : High Efficiency Video Coding\nFormat profile : &lt;a class=&quot;__cf_email__&quot; href=&quot;/cdn-cgi/l/email-protection&quot; data-cfemail=&quot;3c715d55527c700f120d&quot;&gt;[email&amp;#160;protected]&lt;/a&gt;&lt;script cf-hash='f9e31' type=&quot;text/javascript&quot;&gt;\n/* &lt;![CDATA[ */!function(){try{var t=&quot;currentScript&quot;in document?document.currentScript:function(){for(var t=document.getElementsByTagName(&quot;script&quot;),e=t.length;e--;)if(t[e].getAttribute(&quot;cf-hash&quot;))return t[e]}();if(t&amp;&amp;t.previousSibling){var e,r,n,i,c=t.previousSibling,a=c.getAttribute(&quot;data-cfemail&quot;);if(a){for(e=&quot;&quot;,r=parseInt(a.substr(0,2),16),n=2;a.length-n;n+=2)i=parseInt(a.substr(n,2),16)^r,e+=String.fromCharCode(i);e=document.createTextNode(e),c.parentNode.replaceChild(e,c)}}}catch(u){}}();/* ]]&gt; */&lt;/script&gt;\nCodec ID : V_MPEGH/ISO/HEVC\nDuration : 20mn 50s\nBit rate : 1 269 Kbps\nWidth : 1 280 pixels\nHeight : 720 pixels\nDisplay aspect ratio : 16:9\nFrame rate mode : Constant\nFrame rate : 23.976 fps\nColor space : YUV\nChroma subsampling : 4:2:0\nBit depth : 8 bits\nBits/(Pixel*Frame) : 0.057\nStream size : 189 MiB (72%)\nWriting library : x265 unknown:[Linux][GCC 4.9.1][64 bit]\nEncoding settings : wpp / ctu=64 / tu-intra-depth=1 / tu-inter-depth=1 / me=1 / subme=2 / merange=57 / no-rect / no-amp / max-merge=2 / no-early-skip / no-fast-cbf / rdpenalty=0 / no-tskip / no-tskip-fast / strong-intra-smoothing / no-lossless / no-cu-lossless / no-constrained-intra / no-fast-intra / open-gop / interlace=0 / keyint=250 / min-keyint=23 / scenecut=40 / rc-lookahead=20 / bframes=4 / bframe-bias=0 / b-adapt=2 / ref=3 / weightp / no-weightb / aq-mode=2 / aq-strength=1.00 / cbqpoffs=0 / crqpoffs=0 / rd=3 / psy-rd=0.00 / psy-rdoq=0.00 / signhide / lft / sao / sao-lcu-bounds=0 / sao-lcu-opt=1 / b-pyramid / cutree / rc=crf / crf=25.0 / qcomp=0.60 / qpmin=0 / qpmax=51 / qpstep=4 / ipratio=1.40 / pbratio=1.30\nDefault : Yes\nForced : No\n\nAudio\nID : 2\nFormat : AC-3\nFormat/Info : Audio Coding 3\nMode extension : CM (complete main)\nFormat settings, Endianness : Big\nCodec ID : A_AC3\nDuration : 20mn 50s\nBit rate mode : Constant\nBit rate : 448 Kbps\nChannel(s) : 6 channels\nChannel positions : Front: L C R, Side: L R, LFE\nSampling rate : 48.0 KHz\nBit depth : 16 bits\nCompression mode : Lossy\nStream size : 66.8 MiB (26%)\nDefault : Yes\nForced : No\n\n\n\n-AuP\n\nFind My Torrents\n\n[url=https://kickass.so/usearch/aup%20user%3AAnon_up/]https://kickass.so/usearch/aup%20user%3AAnon_up/[/url]\n[url=https://www.1337x.to/user/iAnon/]https://www.1337x.to/user/iAnon/[/url]\n[url=https://thepiratebay.se/user/Anon_up/]https://thepiratebay.se/user/Anon_up/[/url]\n\n[img]http://i.imgur.com/pcnRRpx.png[/img]\n\n[/center]","torrent":{"xt":"urn:btih:8a7948949ff168ff83243d2d1b3771f25c7a5972","amp;dn":"+Hack+My+Life+S01E05+720p+HDTV++x265+HEVC-AuP+%5BUTR%5D","amp;tr":["udp%3A%2F%2Ftracker.openbittorrent.com%3A80","udp%3A%2F%2Fopen.demonii.com%3A1337","udp%3A%2F%2Ftracker.coppersurfer.tk%3A6969","udp%3A%2F%2Fexodus.desync.com%3A6969"],"infoHash":"8a7948949ff168ff83243d2d1b3771f25c7a5972","infoHashBuffer":{"type":"Buffer","data":[138,121,72,148,159,241,104,255,131,36,61,45,27,55,113,242,92,122,89,114]},"announce":[],"urlList":[]}}